<svg id="Сгруппировать_12" data-name="Сгруппировать 12" xmlns="http://www.w3.org/2000/svg" xmlns:xlink="http://www.w3.org/1999/xlink" width="64.994" height="64.996" viewBox="0 0 64.994 64.996">
  <defs>
    <linearGradient id="linear-gradient" x1="0.894" y1="0.106" x2="0.136" y2="0.864" gradientUnits="objectBoundingBox">
      <stop offset="0" stop-color="#ff1359"/>
      <stop offset="1" stop-color="#940b34"/>
    </linearGradient>
    <linearGradient id="linear-gradient-2" x1="1.216" y1="-0.455" x2="-0.161" y2="1.382" xlink:href="#linear-gradient"/>
  </defs>
  <g id="Сгруппировать_11" data-name="Сгруппировать 11">
    <path id="Контур_10" data-name="Контур 10" d="M205.712,325.764H180.527a19.927,19.927,0,0,1-19.9-19.9V280.675a19.927,19.927,0,0,1,19.9-19.906h25.185a19.927,19.927,0,0,1,19.9,19.906V305.86A19.927,19.927,0,0,1,205.712,325.764Zm-25.185-62.581a17.511,17.511,0,0,0-17.491,17.491V305.86a17.51,17.51,0,0,0,17.491,17.49h25.185a17.509,17.509,0,0,0,17.49-17.49V280.675a17.51,17.51,0,0,0-17.49-17.491Z" transform="translate(-160.622 -260.769)" fill="url(#linear-gradient)"/>
  </g>
  <path id="Контур_11" data-name="Контур 11" d="M203.257,278.937H181.584a7.058,7.058,0,0,0-7.058,7.058v12.718a7.057,7.057,0,0,0,7.058,7.058h21.673a7.057,7.057,0,0,0,7.058-7.058V285.995A7.058,7.058,0,0,0,203.257,278.937Zm-15.246,19.3V286.469a1.2,1.2,0,0,1,1.813-1.028l9.836,5.885a1.2,1.2,0,0,1,0,2.055l-9.836,5.885A1.2,1.2,0,0,1,188.011,298.239Z" transform="translate(-159.923 -259.856)" fill="url(#linear-gradient-2)"/>
</svg>
