<svg id="Сгруппировать_19" data-name="Сгруппировать 19" xmlns="http://www.w3.org/2000/svg" xmlns:xlink="http://www.w3.org/1999/xlink" width="64.994" height="64.996" viewBox="0 0 64.994 64.996">
  <defs>
    <linearGradient id="linear-gradient" x1="0.895" y1="0.105" x2="0.075" y2="0.925" gradientUnits="objectBoundingBox">
      <stop offset="0" stop-color="#3a32b8"/>
      <stop offset="1" stop-color="#4e66ff"/>
    </linearGradient>
    <linearGradient id="linear-gradient-2" x1="1.966" y1="-0.22" x2="-0.988" y2="1.322" xlink:href="#linear-gradient"/>
  </defs>
  <g id="Сгруппировать_18" data-name="Сгруппировать 18">
    <path id="Контур_17" data-name="Контур 17" d="M315.538,325.764H290.352a19.927,19.927,0,0,1-19.9-19.9V280.675a19.927,19.927,0,0,1,19.9-19.906h25.185a19.927,19.927,0,0,1,19.9,19.906V305.86A19.927,19.927,0,0,1,315.538,325.764Zm-25.185-62.581a17.51,17.51,0,0,0-17.49,17.491V305.86a17.509,17.509,0,0,0,17.49,17.49h25.185a17.51,17.51,0,0,0,17.491-17.49V280.675a17.511,17.511,0,0,0-17.491-17.491Z" transform="translate(-270.448 -260.769)" fill="url(#linear-gradient)"/>
  </g>
  <path id="Контур_18" data-name="Контур 18" d="M310.5,275.377l-5.059-.112a7.416,7.416,0,0,0-7.58,7.413v4.8h-4.7a.35.35,0,0,0-.35.35v6.031a.35.35,0,0,0,.35.35h4.7v15.257a.35.35,0,0,0,.35.35h6.225a.349.349,0,0,0,.35-.35V294.206h4.741a.349.349,0,0,0,.347-.3l.784-6.031a.349.349,0,0,0-.347-.395h-5.524v-3.049a3.484,3.484,0,0,1,.643-2.326,1.9,1.9,0,0,1,1.489-.581h3.576a.35.35,0,0,0,.35-.35v-5.444A.351.351,0,0,0,310.5,275.377Z" transform="translate(-269.324 -260.041)" fill="url(#linear-gradient-2)"/>
</svg>
