<svg xmlns="http://www.w3.org/2000/svg" width="670.079" height="186.001" viewBox="0 0 670.079 186.001">
  <g id="new_itc_logo" data-name="new itc logo" transform="translate(-1115 -133)">
    <g id="Group_649" data-name="Group 649" transform="translate(952)">
      <path id="Path_39620" data-name="Path 39620" d="M192.2,63.027,145.545,17.221a57.1,57.1,0,0,0-81.731,0L17.182,63.027a56.79,56.79,0,0,0,0,81.395l5.892,5.789C33.549,160.5,88.137,184.012,93.047,186V97.055a6.846,6.846,0,0,0-4.482-6.166L59.483,79.513A13.939,13.939,0,1,1,64.368,67.1l28.3,11.049a31.99,31.99,0,0,0,24,0l28.3-11.049a13.946,13.946,0,1,1,4.885,12.408L120.769,90.889a6.847,6.847,0,0,0-4.482,6.166V186c4.91-1.963,59.5-25.47,69.973-35.789l5.918-5.789a56.844,56.844,0,0,0,0-81.395Zm-87.522-2.114a16.841,16.841,0,1,1,11.911-4.932A16.851,16.851,0,0,1,104.679,60.913Z" transform="translate(163 133)" fill="#93ce03" fill-rule="evenodd"/>
      <path id="Path_39621" data-name="Path 39621" d="M699.131,342.73l-76.917,105.9v16.046c4.91-1.963,59.5-25.47,69.973-35.789L698.1,423.1a56.844,56.844,0,0,0,1.026-80.368Z" transform="translate(-342.928 -145.676)" fill="#83c805" fill-rule="evenodd"/>
      <path id="Path_39622" data-name="Path 39622" d="M64.016,65.281,70.341,31.3l20.121,3.745A16.846,16.846,0,0,1,121.2,40.766l59.639,11.1-35.29-34.646a57.1,57.1,0,0,0-81.731,0L17.182,63.027a56.79,56.79,0,0,0,0,81.395l5.892,5.789c3.592,3.53,12.371,8.613,22.556,13.85L61.239,80.2l-1.756-.687a13.94,13.94,0,1,1,4.533-14.232Z" transform="translate(163 133)" fill="#abdb06" fill-rule="evenodd"/>
      <path id="Path_39623" data-name="Path 39623" d="M418.522,8.975,353.265,31.017,348.183,15.97a57.1,57.1,0,0,1,70.339-6.995Z" transform="translate(-120.109 133)" fill="#a1d606" fill-rule="evenodd"/>
    </g>
    <g id="Group_5" data-name="Group 5" transform="translate(3855.512 -70.154)">
      <g id="Group_4" data-name="Group 4" transform="translate(-2485.834 239.48)">
        <g id="Group_2" data-name="Group 2" transform="translate(0)">
          <path id="Path_2" data-name="Path 2" d="M-2245.35,275.314h10.817v60.357h-10.817Z" transform="translate(2245.35 -274.531)" fill="#ffffff"/>
          <path id="Path_3" data-name="Path 3" d="M-2163.048,283.78h-17.793v51.891h-10.817V283.78h-17.715v-8.466h46.325Z" transform="translate(2227.874 -274.531)" fill="#ffffff"/>
          <path id="Path_4" data-name="Path 4" d="M-2079.36,304.753c0-18.578,11.758-30.962,29.395-30.962,15.129,0,26.1,9.014,27.67,22.576h-10.582c-1.176-8.309-8-13.874-17.088-13.874-10.9,0-18.185,8.936-18.185,22.262s7.29,22.261,18.185,22.261c9.093,0,15.912-5.644,17.088-14.031h10.582c-1.568,13.639-12.62,22.73-27.67,22.73C-2067.6,335.715-2079.36,323.33-2079.36,304.753Z" transform="translate(2164.721 -273.791)" fill="#ffffff"/>
          <path id="Path_5" data-name="Path 5" d="M-1907.841,327.205v8.466h-42.877V275.314h41.937v8.466H-1939.9v16.7h28.3v8.463h-28.3V327.2Z" transform="translate(2102.233 -274.531)" fill="#ffffff"/>
          <path id="Path_6" data-name="Path 6" d="M-1800.087,275.314v60.357h-10.19l-27.67-43.425h-.157l.236,43.425h-10.269V275.314h10.269l27.592,43.583h.157l-.235-43.583Z" transform="translate(2052.405 -274.531)" fill="#ffffff"/>
          <path id="Path_7" data-name="Path 7" d="M-1693.448,283.78h-17.793v51.891h-10.817V283.78h-17.715v-8.466h46.326Z" transform="translate(1999.766 -274.531)" fill="#ffffff"/>
          <path id="Path_8" data-name="Path 8" d="M-1591.722,327.205v8.466H-1634.6V275.314h41.936v8.466h-31.119v16.7h28.3v8.463h-28.3V327.2Z" transform="translate(1948.679 -274.531)" fill="#ffffff"/>
          <path id="Path_9" data-name="Path 9" d="M-1508.112,311.136h-13.09v24.535h-10.817V275.314h23.908c13.4,0,22.418,6.9,22.418,17.167,0,8-4.547,14.031-12.072,16.853l14.266,26.338h-12.071Zm-13.09-8h13.639c6.428,0,10.739-3.92,10.739-9.877,0-5.644-4.312-9.485-10.739-9.485H-1521.2Z" transform="translate(1898.85 -274.531)" fill="#ffffff"/>
        </g>
        <g id="Group_3" data-name="Group 3" transform="translate(42 88.849) scale(1.6)">
          <path id="Path_10" data-name="Path 10" d="M-1891.693,459.691v6.862h-1.93V447.869h8.337q5.308,0,5.308,6.058a6.641,6.641,0,0,1-1.26,4.128,4.586,4.586,0,0,1-3.914,1.635Zm0-10.213v8.5h6.38a2.79,2.79,0,0,0,2.373-1.085,4.869,4.869,0,0,0,.817-2.989,5.817,5.817,0,0,0-.777-3.27,2.572,2.572,0,0,0-2.278-1.152Z" transform="translate(1893.623 -447.198)" fill="#ffffff"/>
          <path id="Path_11" data-name="Path 11" d="M-1861.73,464.224q0-3.994,1.421-5.549,1.447-1.527,4.718-1.528t4.718,1.528q1.447,1.529,1.447,5.549,0,4.048-1.447,5.629t-4.718,1.581q-3.271,0-4.718-1.581Q-1861.73,468.271-1861.73,464.224Zm6.139-5.469q-2.439,0-3.324,1.072-.885,1.1-.885,4.45,0,3.243.885,4.4.91,1.153,3.324,1.152,2.439,0,3.324-1.152.911-1.152.911-4.4,0-3.35-.884-4.45-.881-1.072-3.349-1.072Z" transform="translate(1878.131 -451.705)" fill="#ffffff"/>
          <path id="Path_12" data-name="Path 12" d="M-1814.75,457.877h1.957a101.2,101.2,0,0,1-4.611,13.537h-2.468a93.45,93.45,0,0,0-3-11.526,117.85,117.85,0,0,1-3.485,11.526h-2.468a117.784,117.784,0,0,0-4.4-13.537h2.064a102.644,102.644,0,0,1,3.645,11.875q.938-2.6,1.984-6.165,1.072-3.754,1.528-5.708h2.225a114.758,114.758,0,0,1,3.217,11.875A99.218,99.218,0,0,0-1814.75,457.877Z" transform="translate(1864.284 -452.06)" fill="#ffffff"/>
          <path id="Path_13" data-name="Path 13" d="M-1782.768,457.147q2.975,0,4.235,1.582,1.286,1.555,1.286,5.736h-9.676q.027,3.164,1.046,4.262a4.766,4.766,0,0,0,3.512,1.072,11.3,11.3,0,0,0,3.887-.724l.4,1.608a15.071,15.071,0,0,1-4.45.751,6.4,6.4,0,0,1-4.8-1.609q-1.528-1.609-1.528-5.6,0-3.805,1.448-5.442T-1782.768,457.147Zm0,1.635a4.411,4.411,0,0,0-3.083.885,4.884,4.884,0,0,0-1.045,3.217h7.666a5.54,5.54,0,0,0-.858-3.271A3.512,3.512,0,0,0-1782.768,458.782Z" transform="translate(1842.731 -451.705)" fill="#ffffff"/>
          <path id="Path_14" data-name="Path 14" d="M-1754.171,457.146a11.207,11.207,0,0,1,1.394.081v1.8a9.586,9.586,0,0,0-1.394-.107,6.846,6.846,0,0,0-2.748.469,1.466,1.466,0,0,0-1.058,1.327v10.345h-1.743V457.522h1.743v.965a3.424,3.424,0,0,1,1.487-.951,6.547,6.547,0,0,1,2.319-.389Z" transform="translate(1828.58 -451.705)" fill="#ffffff"/>
          <path id="Path_15" data-name="Path 15" d="M-1736.429,457.147q2.975,0,4.235,1.582,1.285,1.555,1.286,5.736h-9.677q.027,3.164,1.045,4.262a4.768,4.768,0,0,0,3.512,1.072,11.3,11.3,0,0,0,3.887-.724l.4,1.608a15.067,15.067,0,0,1-4.45.751,6.4,6.4,0,0,1-4.8-1.609q-1.527-1.609-1.528-5.6,0-3.805,1.448-5.442T-1736.429,457.147Zm0,1.635a4.421,4.421,0,0,0-3.086.885,4.886,4.886,0,0,0-1.045,3.217h7.666a5.541,5.541,0,0,0-.858-3.271A3.505,3.505,0,0,0-1736.429,458.782Z" transform="translate(1820.223 -451.705)" fill="#ffffff"/>
          <path id="Path_16" data-name="Path 16" d="M-1707.918,452.007a5.855,5.855,0,0,1,3.726,1.1v-6.541h1.742v18.658a11.612,11.612,0,0,1-2.627.777,16.288,16.288,0,0,1-2.842.3q-3.271,0-4.718-1.528-1.421-1.581-1.421-5.576,0-4.02,1.421-5.6Q-1711.189,452.007-1707.918,452.007Zm0,12.626a10.971,10.971,0,0,0,3.726-.566v-8.495a1.563,1.563,0,0,0-1.045-1.38,5.989,5.989,0,0,0-2.681-.523q-2.412,0-3.323,1.126-.885,1.126-.885,4.371.081,3.432.885,4.423t3.323,1.044Z" transform="translate(1806.399 -446.565)" fill="#ffffff"/>
          <path id="Path_17" data-name="Path 17" d="M-1663.186,452.007q3.27,0,4.691,1.582,1.448,1.555,1.448,5.6,0,3.995-1.448,5.576-1.421,1.527-4.691,1.528a16.27,16.27,0,0,1-2.841-.3,11.615,11.615,0,0,1-2.627-.777V446.565h1.742v6.541a5.854,5.854,0,0,1,3.726-1.1Zm0,12.626q2.52-.051,3.324-1.045t.885-4.423q0-3.27-.912-4.371-.885-1.126-3.3-1.126a5.991,5.991,0,0,0-2.681.523,1.563,1.563,0,0,0-1.045,1.38v8.5a11.118,11.118,0,0,0,3.726.566Z" transform="translate(1784.344 -446.565)" fill="#ffffff"/>
          <path id="Path_18" data-name="Path 18" d="M-1636.512,472.057a91.752,91.752,0,0,0-4.988-14.18h1.957a90.2,90.2,0,0,1,4.182,11.982,106.573,106.573,0,0,0,4.262-11.982h1.9a137.57,137.57,0,0,1-5.04,13.537q-.992,2.359-2.44,5.147h-2.037Q-1637.612,474.523-1636.512,472.057Z" transform="translate(1771.154 -452.06)" fill="#ffffff"/>
          <path id="Path_19" data-name="Path 19" d="M-1596.09,466.552V447.869h1.931v18.683Z" transform="translate(1749.096 -447.198)" fill="#ffffff"/>
          <path id="Path_20" data-name="Path 20" d="M-1571.908,449.481h-6.461v17.073h-1.957V449.481h-6.487v-1.609h14.9Z" transform="translate(1744.59 -447.2)" fill="#ffffff"/>
          <path id="Path_21" data-name="Path 21" d="M-1535.413,459.691v6.862h-1.93V447.869h8.336q5.308,0,5.308,6.058a6.633,6.633,0,0,1-1.26,4.128,4.585,4.585,0,0,1-3.913,1.635Zm0-10.213v8.5h6.38a2.789,2.789,0,0,0,2.372-1.085,4.869,4.869,0,0,0,.818-2.989,5.824,5.824,0,0,0-.777-3.27,2.575,2.575,0,0,0-2.279-1.152Z" transform="translate(1720.56 -447.198)" fill="#ffffff"/>
          <path id="Path_22" data-name="Path 22" d="M-1494.8,462.4v7.962a12.988,12.988,0,0,1-5.468,1.072,6.884,6.884,0,0,1-4.235-.992,4.349,4.349,0,0,1-1.26-3.565q0-2.627,1.367-3.565a7.147,7.147,0,0,1,3.994-.912,18.277,18.277,0,0,1,3.86.429q0-2.492-.8-3.243a4.784,4.784,0,0,0-3.188-.778,9.833,9.833,0,0,0-3.887.644l-.509-1.635a16.279,16.279,0,0,1,4.5-.668q3.056,0,4.343,1.126T-1494.8,462.4Zm-1.742,6.835v-4.932a15.321,15.321,0,0,0-3.646-.349,5.633,5.633,0,0,0-2.9.51q-.724.483-.724,2.279,0,1.984.7,2.547a5.147,5.147,0,0,0,2.922.566,10.99,10.99,0,0,0,3.65-.62Z" transform="translate(1705.219 -451.707)" fill="#ffffff"/>
          <path id="Path_23" data-name="Path 23" d="M-1470.962,457.146a11.209,11.209,0,0,1,1.394.081v1.8a9.6,9.6,0,0,0-1.394-.107,6.847,6.847,0,0,0-2.748.469,1.468,1.468,0,0,0-1.058,1.327v10.345h-1.743V457.522h1.743v.965a3.427,3.427,0,0,1,1.488-.951,6.544,6.544,0,0,1,2.319-.389Z" transform="translate(1691.011 -451.705)" fill="#ffffff"/>
          <path id="Path_24" data-name="Path 24" d="M-1447.8,465.919h-2.252q-5.415-6.674-6.836-7.157v7.157h-1.742V446.565h1.742v12.2q1.609-1.071,6.354-6.38h2.251a47.439,47.439,0,0,1-6.192,6.139Q-1453.163,459.218-1447.8,465.919Z" transform="translate(1682.325 -446.565)" fill="#ffffff"/>
        </g>
      </g>
    </g>
  </g>
</svg>
