<?xml version="1.0" standalone="no"?><svg xmlns="http://www.w3.org/2000/svg" viewBox="0 0 1440 320"><path fill="#3A3A3A" fill-opacity="1" d="M0,64L10,96C20,128,40,192,60,208C80,224,100,192,120,186.7C140,181,160,203,180,181.3C200,160,220,96,240,69.3C260,43,280,53,300,74.7C320,96,340,128,360,117.3C380,107,400,53,420,58.7C440,64,460,128,480,144C500,160,520,128,540,96C560,64,580,32,600,64C620,96,640,192,660,202.7C680,213,700,139,720,117.3C740,96,760,128,780,149.3C800,171,820,181,840,186.7C860,192,880,192,900,176C920,160,940,128,960,128C980,128,1000,160,1020,181.3C1040,203,1060,213,1080,192C1100,171,1120,117,1140,96C1160,75,1180,85,1200,90.7C1220,96,1240,96,1260,106.7C1280,117,1300,139,1320,144C1340,149,1360,139,1380,133.3C1400,128,1420,128,1430,128L1440,128L1440,320L1430,320C1420,320,1400,320,1380,320C1360,320,1340,320,1320,320C1300,320,1280,320,1260,320C1240,320,1220,320,1200,320C1180,320,1160,320,1140,320C1120,320,1100,320,1080,320C1060,320,1040,320,1020,320C1000,320,980,320,960,320C940,320,920,320,900,320C880,320,860,320,840,320C820,320,800,320,780,320C760,320,740,320,720,320C700,320,680,320,660,320C640,320,620,320,600,320C580,320,560,320,540,320C520,320,500,320,480,320C460,320,440,320,420,320C400,320,380,320,360,320C340,320,320,320,300,320C280,320,260,320,240,320C220,320,200,320,180,320C160,320,140,320,120,320C100,320,80,320,60,320C40,320,20,320,10,320L0,320Z"></path></svg>